<?xml version="1.0" encoding="UTF-8"?>
<svg width="1200px" height="400px" viewBox="0 0 1200 400" version="1.1" xmlns="http://www.w3.org/2000/svg" xmlns:xlink="http://www.w3.org/1999/xlink">
    <!-- Generator: Sketch 53.2 (72643) - https://sketchapp.com -->
    <title>banner enercoop offres</title>
    <desc>Created with Sketch.</desc>
    <g id="banner-enercoop-offres" stroke="none" stroke-width="1" fill="none" fill-rule="evenodd">
        <rect fill="#FFFFFF" x="0" y="0" width="1200" height="400"></rect>
        <g id="Group" transform="translate(48.000000, 15.000000)">
            <path d="M833.655668,278.864739 C812.330653,310.89455 775.895108,332 734.53012,332 C708.512348,332 684.444744,323.650335 664.860722,309.484418 C643.321248,340.040355 607.756597,360 567.53012,360 C517.825882,360 475.239001,329.526968 457.432941,286.244365 C439.181003,308.097212 411.729147,322 381.03012,322 C328.513901,322 285.500289,281.314504 281.789791,229.744021 C273.538432,233.131905 264.502435,235 255.03012,235 C216.094046,235 184.53012,203.436075 184.53012,164.5 C184.53012,125.563925 216.094046,94 255.03012,94 C258.696201,94 262.296925,94.2798277 265.812098,94.8192895 C278.192342,74.5382927 300.530212,61 326.03012,61 C341.887129,61 356.521403,66.235151 368.298856,75.0713664 C384.001221,50.3814385 411.602626,34 443.03012,34 C455.310331,34 467.00636,36.5011752 477.636571,41.021888 C499.45497,15.8912239 531.636748,0 567.53012,0 C609.055466,0 645.613076,21.2694046 666.902995,53.5082591 C683.025031,36.5627273 705.794047,26 731.03012,26 C776.283681,26 813.604174,59.965501 818.889148,103.794053 C828.033339,100.685872 837.834851,99 848.03012,99 C898.01189,99 938.53012,139.51823 938.53012,189.5 C938.53012,239.48177 898.01189,280 848.03012,280 C843.13828,280 838.337091,279.611875 833.655668,278.864739 Z" id="Combined-Shape" fill="#FFF100" fill-rule="nonzero"></path>
            <g id="labels" transform="translate(119.000000, 28.000000)">
                <g id="Group-5" transform="translate(72.869667, 76.461985) rotate(76.000000) translate(-72.869667, -76.461985) translate(36.369667, 10.461985)" fill="#FFFFFF" stroke="#14EEC4" stroke-linecap="round" stroke-width="6.112">
                    <path d="M68.0005234,132 L5.00015888,132 C2.23843925,132 0,129.670516 0,126.797828 L0,38.92121 C0,37.6063002 0.479616822,36.3392798 1.34060748,35.3767001 L30.4143925,2.88364866 C33.8767757,-0.985826 39.7761308,-0.957092277 43.2037196,2.94590506 L71.6914579,35.3842256 C72.5333458,36.3427005 73,37.5946698 73,38.8938446 L73,126.797828 C73,129.670516 70.7615607,132 68.0005234,132 Z" id="Stroke-1"></path>
                    <path d="M44,23 C44,18.582 40.418,15 36,15 C31.582,15 28,18.582 28,23 C28,27.418 31.582,31 36,31 C40.418,31 44,27.418 44,23 Z" id="Stroke-3"></path>
                </g>
                <g id="Group-5-Copy" transform="translate(675.313227, 63.928427) rotate(-119.000000) translate(-675.313227, -63.928427) translate(638.813227, -2.071573)" stroke="#14EEC4" stroke-linecap="round" stroke-width="6.112">
                    <path d="M68.0005234,132 L5.00015888,132 C2.23843925,132 0,129.670516 0,126.797828 L0,38.92121 C0,37.6063002 0.479616822,36.3392798 1.34060748,35.3767001 L30.4143925,2.88364866 C33.8767757,-0.985826 39.7761308,-0.957092277 43.2037196,2.94590506 L71.6914579,35.3842256 C72.5333458,36.3427005 73,37.5946698 73,38.8938446 L73,126.797828 C73,129.670516 70.7615607,132 68.0005234,132 Z" id="Stroke-1" fill="#FFFFFF"></path>
                    <path d="M44,21.5 C44,17.910375 40.86575,15 37,15 C33.13425,15 30,17.910375 30,21.5 C30,25.089625 33.13425,28 37,28 C40.86575,28 44,25.089625 44,21.5 Z" id="Stroke-3" fill="#FFF100"></path>
                </g>
                <g id="Group-5-Copy-4" transform="translate(845.174976, 187.278117) rotate(-74.000000) translate(-845.174976, -187.278117) translate(808.674976, 121.278117)" fill="#FFFFFF" stroke="#14EEC4" stroke-linecap="round" stroke-width="6.112">
                    <path d="M68.0005234,132 L5.00015888,132 C2.23843925,132 0,129.670516 0,126.797828 L0,38.92121 C0,37.6063002 0.479616822,36.3392798 1.34060748,35.3767001 L30.4143925,2.88364866 C33.8767757,-0.985826 39.7761308,-0.957092277 43.2037196,2.94590506 L71.6914579,35.3842256 C72.5333458,36.3427005 73,37.5946698 73,38.8938446 L73,126.797828 C73,129.670516 70.7615607,132 68.0005234,132 Z" id="Stroke-1"></path>
                    <path d="M44,23 C44,18.582 40.418,15 36,15 C31.582,15 28,18.582 28,23 C28,27.418 31.582,31 36,31 C40.418,31 44,27.418 44,23 Z" id="Stroke-3"></path>
                </g>
                <g id="Group-5-Copy-3" transform="translate(639.335470, 260.406263) rotate(-80.000000) translate(-639.335470, -260.406263) translate(602.835470, 194.406263)" stroke="#14EEC4" stroke-linecap="round" stroke-width="6.112">
                    <path d="M68.0005234,132 L5.00015888,132 C2.23843925,132 0,129.670516 0,126.797828 L0,38.92121 C0,37.6063002 0.479616822,36.3392798 1.34060748,35.3767001 L30.4143925,2.88364866 C33.8767757,-0.985826 39.7761308,-0.957092277 43.2037196,2.94590506 L71.6914579,35.3842256 C72.5333458,36.3427005 73,37.5946698 73,38.8938446 L73,126.797828 C73,129.670516 70.7615607,132 68.0005234,132 Z" id="Stroke-1" fill="#FFFFFF"></path>
                    <path d="M42,22.5 C42,18.358125 38.86575,15 35,15 C31.13425,15 28,18.358125 28,22.5 C28,26.641875 31.13425,30 35,30 C38.86575,30 42,26.641875 42,22.5 Z" id="Stroke-3" fill="#FFF100"></path>
                </g>
                <g id="Group-5-Copy-2" transform="translate(211.244906, 217.999575) rotate(35.000000) translate(-211.244906, -217.999575) translate(174.744906, 151.999575)" stroke="#14EEC4" stroke-linecap="round" stroke-width="6.112">
                    <path d="M68.0005234,132 L5.00015888,132 C2.23843925,132 0,129.670516 0,126.797828 L0,38.92121 C0,37.6063002 0.479616822,36.3392798 1.34060748,35.3767001 L30.4143925,2.88364866 C33.8767757,-0.985826 39.7761308,-0.957092277 43.2037196,2.94590506 L71.6914579,35.3842256 C72.5333458,36.3427005 73,37.5946698 73,38.8938446 L73,126.797828 C73,129.670516 70.7615607,132 68.0005234,132 Z" id="Stroke-1" fill="#FFFFFF"></path>
                    <path d="M42,21.5 C42,17.910375 38.86575,15 35,15 C31.13425,15 28,17.910375 28,21.5 C28,25.089625 31.13425,28 35,28 C38.86575,28 42,25.089625 42,21.5 Z" id="Stroke-3" fill="#FFF100"></path>
                </g>
                <path d="M114.894601,66.031391 C152.339793,50.6398488 190.870494,49.5284175 226.795973,78.9019606 C250.746293,98.4843227 281.630908,114.356513 319.449817,126.518532" id="Path-15" stroke="#14EEC4" stroke-width="4" stroke-linecap="round" fill-rule="nonzero"></path>
                <path d="M235.337469,181.529524 C251.253944,154.466332 273.323795,147.590363 284.133518,168.52286 C291.34,182.477859 303.203909,189.07516 319.725244,188.314763" id="Path-16" stroke="#14EEC4" stroke-width="4" stroke-linecap="round" fill-rule="nonzero"></path>
                <path d="M636.006855,88.5710894 C636.006855,117.12159 611.723862,129.577398 583.040508,123.349494 C563.918272,119.197558 545.153552,131.08106 526.746347,159" id="Path-17" stroke="#14EEC4" stroke-width="4" stroke-linecap="round" fill-rule="nonzero"></path>
                <path d="M803.781145,177.851755 C767.00346,162.917099 719.600751,140.148245 688.532518,159 C657.464285,177.851755 582.85905,205.05104 528.061919,191.451398" id="Path-18" stroke="#14EEC4" stroke-width="4" stroke-linecap="round" fill-rule="nonzero"></path>
                <path d="M594.281194,254.459511 C544.281194,277.271397 528.904404,294.884181 508.986128,281.409291 C495.707277,272.426031 486.826628,263.442771 482.344178,254.459511" id="Path-19" stroke="#14EEC4" stroke-width="4" stroke-linecap="round" fill-rule="nonzero"></path>
                <path d="M60.3614458,84.746988 L51.0682731,84.746988 C51.1726913,87.7751155 51.9340625,90.0374758 53.3524096,91.5341365 C54.7707568,93.0307973 56.8025303,93.7791165 59.4477912,93.7791165 C61.3621247,93.7791165 63.1459087,93.4919707 64.7991968,92.9176707 L65.5301205,98.2429719 C63.4417566,98.7476598 61.283813,99 59.0562249,99 C54.6010487,99 51.0943903,97.7470005 48.5361446,95.2409639 C45.9778989,92.7349272 44.6291841,89.2369702 44.4899598,84.746988 L40,84.746988 L40,81.0662651 L44.4899598,81.0662651 L44.4899598,77.7248996 L40,77.7248996 L40,74.0441767 L44.5160643,74.0441767 C44.7423037,69.6064035 46.1606295,66.1563041 48.7710843,63.6937751 C51.3815392,61.2312461 54.8881975,60 59.2911647,60 C61.1358861,60 63.2155172,60.269743 65.5301205,60.8092369 L64.7991968,66.1606426 C63.0240875,65.5689395 61.2577062,65.2730924 59.5,65.2730924 C56.8721421,65.2730924 54.8534207,66.0214115 53.4437751,67.5180723 C52.0341295,69.0147331 51.2510048,71.1900794 51.0943775,74.0441767 L60.3614458,74.0441767 L60.3614458,77.7248996 L51.0682731,77.7248996 L51.0682731,81.0662651 L60.3614458,81.0662651 L60.3614458,84.746988 Z" id="€" fill="#FFF100"></path>
                <path d="M206.361446,240.746988 L197.068273,240.746988 C197.172691,243.775116 197.934063,246.037476 199.35241,247.534137 C200.770757,249.030797 202.80253,249.779116 205.447791,249.779116 C207.362125,249.779116 209.145909,249.491971 210.799197,248.917671 L211.53012,254.242972 C209.441757,254.74766 207.283813,255 205.056225,255 C200.601049,255 197.09439,253.747 194.536145,251.240964 C191.977899,248.734927 190.629184,245.23697 190.48996,240.746988 L186,240.746988 L186,237.066265 L190.48996,237.066265 L190.48996,233.7249 L186,233.7249 L186,230.044177 L190.516064,230.044177 C190.742304,225.606404 192.16063,222.156304 194.771084,219.693775 C197.381539,217.231246 200.888198,216 205.291165,216 C207.135886,216 209.215517,216.269743 211.53012,216.809237 L210.799197,222.160643 C209.024088,221.568939 207.257706,221.273092 205.5,221.273092 C202.872142,221.273092 200.853421,222.021412 199.443775,223.518072 C198.034129,225.014733 197.251005,227.190079 197.094378,230.044177 L206.361446,230.044177 L206.361446,233.7249 L197.068273,233.7249 L197.068273,237.066265 L206.361446,237.066265 L206.361446,240.746988 Z" id="€-copy" fill="#FFF100"></path>
                <path d="M656.361446,265.746988 L647.068273,265.746988 C647.172691,268.775116 647.934063,271.037476 649.35241,272.534137 C650.770757,274.030797 652.80253,274.779116 655.447791,274.779116 C657.362125,274.779116 659.145909,274.491971 660.799197,273.917671 L661.53012,279.242972 C659.441757,279.74766 657.283813,280 655.056225,280 C650.601049,280 647.09439,278.747 644.536145,276.240964 C641.977899,273.734927 640.629184,270.23697 640.48996,265.746988 L636,265.746988 L636,262.066265 L640.48996,262.066265 L640.48996,258.7249 L636,258.7249 L636,255.044177 L640.516064,255.044177 C640.742304,250.606404 642.16063,247.156304 644.771084,244.693775 C647.381539,242.231246 650.888198,241 655.291165,241 C657.135886,241 659.215517,241.269743 661.53012,241.809237 L660.799197,247.160643 C659.024088,246.568939 657.257706,246.273092 655.5,246.273092 C652.872142,246.273092 650.853421,247.021412 649.443775,248.518072 C648.034129,250.014733 647.251005,252.190079 647.094378,255.044177 L656.361446,255.044177 L656.361446,258.7249 L647.068273,258.7249 L647.068273,262.066265 L656.361446,262.066265 L656.361446,265.746988 Z" id="€-copy-2" fill="#FFF100"></path>
                <path d="M695.361446,61.746988 L686.068273,61.746988 C686.172691,64.7751155 686.934063,67.0374758 688.35241,68.5341365 C689.770757,70.0307973 691.80253,70.7791165 694.447791,70.7791165 C696.362125,70.7791165 698.145909,70.4919707 699.799197,69.9176707 L700.53012,75.2429719 C698.441757,75.7476598 696.283813,76 694.056225,76 C689.601049,76 686.09439,74.7470005 683.536145,72.2409639 C680.977899,69.7349272 679.629184,66.2369702 679.48996,61.746988 L675,61.746988 L675,58.0662651 L679.48996,58.0662651 L679.48996,54.7248996 L675,54.7248996 L675,51.0441767 L679.516064,51.0441767 C679.742304,46.6064035 681.16063,43.1563041 683.771084,40.6937751 C686.381539,38.2312461 689.888198,37 694.291165,37 C696.135886,37 698.215517,37.269743 700.53012,37.8092369 L699.799197,43.1606426 C698.024088,42.5689395 696.257706,42.2730924 694.5,42.2730924 C691.872142,42.2730924 689.853421,43.0214115 688.443775,44.5180723 C687.034129,46.0147331 686.251005,48.1900794 686.094378,51.0441767 L695.361446,51.0441767 L695.361446,54.7248996 L686.068273,54.7248996 L686.068273,58.0662651 L695.361446,58.0662651 L695.361446,61.746988 Z" id="€-copy-3" fill="#FFF100"></path>
                <path d="M865.361446,196.746988 L856.068273,196.746988 C856.172691,199.775116 856.934063,202.037476 858.35241,203.534137 C859.770757,205.030797 861.80253,205.779116 864.447791,205.779116 C866.362125,205.779116 868.145909,205.491971 869.799197,204.917671 L870.53012,210.242972 C868.441757,210.74766 866.283813,211 864.056225,211 C859.601049,211 856.09439,209.747 853.536145,207.240964 C850.977899,204.734927 849.629184,201.23697 849.48996,196.746988 L845,196.746988 L845,193.066265 L849.48996,193.066265 L849.48996,189.7249 L845,189.7249 L845,186.044177 L849.516064,186.044177 C849.742304,181.606404 851.16063,178.156304 853.771084,175.693775 C856.381539,173.231246 859.888198,172 864.291165,172 C866.135886,172 868.215517,172.269743 870.53012,172.809237 L869.799197,178.160643 C868.024088,177.568939 866.257706,177.273092 864.5,177.273092 C861.872142,177.273092 859.853421,178.021412 858.443775,179.518072 C857.034129,181.014733 856.251005,183.190079 856.094378,186.044177 L865.361446,186.044177 L865.361446,189.7249 L856.068273,189.7249 L856.068273,193.066265 L865.361446,193.066265 L865.361446,196.746988 Z" id="€-copy-4" fill="#FFF100"></path>
            </g>
            <g id="cadeau" transform="translate(423.000000, 36.000000)" stroke="#14EEC4" stroke-linecap="round">
                <path d="M210.712248,243.439762 L27.5565799,243.439762 C20.7576905,243.439762 15.2474794,237.923919 15.2474794,231.120767 L15.2474794,91.9914857 L223.021349,91.9914857 L223.021349,231.120767 C223.021349,237.923919 217.509937,243.439762 210.712248,243.439762 Z" id="Stroke-1" stroke-width="6.7584" fill="#FFFFFF"></path>
                <path d="M231.058354,45.1146384 L7.21023367,45.1146384 C3.48351508,45.1146384 0.461786432,48.1387961 0.461786432,51.8685103 L0.461786432,85.2388158 C0.461786432,88.96853 3.48351508,91.9914857 7.21023367,91.9914857 L231.058354,91.9914857 C234.785073,91.9914857 237.806802,88.96853 237.806802,85.2388158 L237.806802,51.8685103 C237.806802,48.1387961 234.785073,45.1146384 231.058354,45.1146384 Z" id="Stroke-3" stroke-width="8.1228" fill="#FFFFFF"></path>
                <path d="M110.711886,8.46595862 C118.368293,16.501131 119.343509,32.9549044 119.341107,40.8494463 C119.339906,43.3255054 117.282584,45.2895251 114.810916,45.172934 C106.932323,44.8003232 90.5554186,43.0454463 82.8990116,35.0102739 C72.6100015,24.2129734 74.2854035,13.493801 81.9646296,6.16298325 C89.6450568,-1.16663251 100.422876,-2.33134187 110.711886,8.46595862 Z" id="Stroke-5" stroke-width="8.2176"></path>
                <path d="M127.556462,8.46595862 C119.900055,16.501131 118.924839,32.9549044 118.927241,40.8494463 C118.928442,43.3255054 120.985763,45.2895251 123.457432,45.172934 C131.336025,44.8003232 147.712929,43.0454463 155.369336,35.0102739 C165.658346,24.2129734 163.982944,13.493801 156.303718,6.16298325 C148.623291,-1.16663251 137.845472,-2.33134187 127.556462,8.46595862 Z" id="Stroke-7" stroke-width="8.2176"></path>
                <polygon id="Stroke-9" stroke-width="8.1144" fill="#FFF100" points="104.721633 91.3906207 133.545754 91.3906207 133.545754 44.5137734 104.721633 44.5137734"></polygon>
            </g>
            <g id="hand" transform="translate(70.772164, 174.000000) rotate(46.000000) translate(-70.772164, -174.000000) translate(38.272164, 107.000000)" stroke="#14EEC4">
                <path d="M52.8783507,82.6696199 C59.8651401,78.1659133 64.4898112,70.327693 64.4898112,61.4120366 L64.4898112,49.8339491 L64.4898112,44.5167072 L64.4898112,42.5411761 C64.4898112,38.9612348 61.5802467,36.0587111 57.9916214,36.0587111 C57.5176597,36.0587111 56.9027685,36.1984893 56.3353953,36.3666282 C55.5401794,36.6020227 54.7425266,36.0104978 54.7425266,35.1827681 C54.7425266,32.3697834 52.443792,29.846484 49.6353556,29.5904266 C44.4030945,29.1131551 43.4385194,33.2619327 42.9572472,36.0335916 C42.9292238,36.1960584 42.6932583,36.1916017 42.6713269,36.0279194 C42.3577892,33.6646558 41.1868967,28.7659381 36.8725048,28.7659381 C33.9511624,28.7659381 32.0679058,34.1998643 31.4290525,36.3824292 C31.388845,36.5193713 31.1865888,36.4897951 31.1865888,36.3471808 L31.1865888,6.68504195 C31.1865888,2.99287302 28.1864559,0 24.4853307,0 C20.7842055,0 17.7840725,2.99287302 17.7840725,6.68504195 L17.7840725,44.5167072 L17.7840725,49.6313721 L17.7840725,52.4447618 C13.194726,48.116501 5.96833291,47.9576807 1.18932051,52.2446157 C-0.284550149,53.5666334 -0.405172796,55.8306343 0.920457908,57.3013435 L20.9218859,79.490821 C21.6735741,80.5498649 22.5430783,81.5197992 23.5113906,82.3814648" id="Stroke-1" stroke-width="5.6" fill="#FFFFFF"></path>
                <path d="M58.0408301,103.183698 L58.0408301,131.278943 C58.0408301,132.383513 57.1453996,133.278943 56.0408301,133.278943 L21.3469434,133.278943 C20.2423739,133.278943 19.3469434,132.383513 19.3469434,131.278943 L19.3469434,103.183698" id="Rectangle-Copy" stroke-width="5" fill="#FFFFFF" fill-rule="nonzero"></path>
                <path d="M20.7641761,82.5449314 L53.0408301,82.5449314 C55.8022538,82.5449314 58.0408301,84.7835076 58.0408301,87.5449314 L58.0408301,98.0424141 C58.0408301,100.803838 55.8022538,103.042414 53.0408301,103.042414 L20.7641761,103.042414 C18.0027523,103.042414 15.7641761,100.803838 15.7641761,98.0424141 L15.7641761,87.5449314 C15.7641761,84.7835076 18.0027523,82.5449314 20.7641761,82.5449314 Z" id="Rectangle" stroke-width="5" fill="#FFF100" fill-rule="nonzero"></path>
            </g>
            <g id="hand-copy" transform="translate(200.249245, 319.737811) rotate(54.000000) translate(-200.249245, -319.737811) translate(155.249245, 226.737811)" stroke="#14EEC4">
                <path d="M73.7954024,115.371183 C83.5459511,109.085948 90,98.1471686 90,85.7047523 L90,69.546729 L90,62.1261495 L90,59.3691589 C90,54.3731028 85.9395012,50.3224299 80.931326,50.3224299 C80.2698796,50.3224299 79.4117563,50.5175 78.6199477,50.7521495 C77.5101687,51.0806589 76.396989,50.2551449 76.396989,49.0999907 C76.396989,45.1742757 73.1889455,41.6528364 69.269578,41.2954907 C61.967595,40.6294252 60.6214637,46.4193318 59.949815,50.2873738 C59.9107064,50.5141075 59.5814002,50.5078879 59.5507934,50.2794579 C59.1132299,46.9813598 57.4791682,40.1448598 51.4581354,40.1448598 C47.3811996,40.1448598 44.7529845,47.7282804 43.8614205,50.7742009 C43.8053081,50.9653131 43.5230456,50.9240374 43.5230456,50.7250093 L43.5230456,9.32943925 C43.5230456,4.17676168 39.3361522,0 34.1709755,0 C29.0057989,0 24.8189055,4.17676168 24.8189055,9.32943925 L24.8189055,62.1261495 L24.8189055,69.2640187 L24.8189055,73.1902991 C18.4141544,67.1499112 8.32922213,66.9282664 1.65977918,72.9109813 C-0.39710945,74.7559486 -0.565446711,77.9155187 1.28456279,79.9679953 L29.1979414,110.934949 C30.2469744,112.412918 31.4604278,113.766528 32.8117746,114.969042" id="Stroke-1" stroke-width="5.6" fill="#FFFFFF"></path>
                <path d="M81,144 L81,184 C81,185.104569 80.1045695,186 79,186 L29,186 C27.8954305,186 27,185.104569 27,184 L27,144" id="Rectangle-Copy" stroke-width="5" fill="#FFFFFF" fill-rule="nonzero"></path>
                <rect id="Rectangle" stroke-width="5" fill="#FFF100" fill-rule="nonzero" x="22" y="115" width="64" height="29" rx="5"></rect>
            </g>
            <g id="hand-copy-2" transform="translate(725.526746, 389.729339) rotate(29.000000) translate(-725.526746, -389.729339) translate(689.026746, 314.229339)" fill="#FFFFFF" stroke="#14EEC4" stroke-width="5.6">
                <path d="M59.8562708,94 C67.7650492,88.8790327 73,79.9665361 73,69.8289341 L73,56.6639985 L73,50.6179959 L73,48.371706 C73,44.3011118 69.7064843,41.0007794 65.6442977,41.0007794 C65.1077912,41.0007794 64.4117579,41.159715 63.7695131,41.3508984 C62.8693591,41.6185552 61.9664466,40.9459581 61.9664466,40.0047829 C61.9664466,36.8062614 59.3643669,33.9371283 56.1853244,33.6459767 C50.2626048,33.1032922 49.1707428,37.8206852 48.6259611,40.972217 C48.5942396,41.1569509 48.3271357,41.1518834 48.3023102,40.9657675 C47.9473976,38.278604 46.621992,32.7084869 41.7382654,32.7084869 C38.4314175,32.7084869 36.299643,38.8871662 35.5764855,41.368865 C35.5309721,41.5245759 35.3020259,41.490946 35.3020259,41.3287856 L35.3020259,7.60126809 C35.3020259,3.40306469 31.9059901,0 27.7164579,0 C23.5269258,0 20.13089,3.40306469 20.13089,7.60126809 L20.13089,50.6179959 L20.13089,56.433657 L20.13089,59.6326392 C14.9359253,54.7111636 6.75592462,54.5305759 1.34626533,59.4050618 C-0.322099887,60.9082702 -0.45864011,63.4825663 1.04192315,65.1548453 L23.6827747,90.3855271 C24.533657,91.5897195 25.5179025,92.6925893 26.613995,93.6723515" id="Stroke-1"></path>
            </g>
            <g id="hand-copy-3" transform="translate(955.477959, 67.536833) rotate(-105.000000) translate(-955.477959, -67.536833) translate(910.477959, -25.463167)" stroke="#14EEC4">
                <path d="M73.7954024,115.371183 C83.5459511,109.085948 90,98.1471686 90,85.7047523 L90,69.546729 L90,62.1261495 L90,59.3691589 C90,54.3731028 85.9395012,50.3224299 80.931326,50.3224299 C80.2698796,50.3224299 79.4117563,50.5175 78.6199477,50.7521495 C77.5101687,51.0806589 76.396989,50.2551449 76.396989,49.0999907 C76.396989,45.1742757 73.1889455,41.6528364 69.269578,41.2954907 C61.967595,40.6294252 60.6214637,46.4193318 59.949815,50.2873738 C59.9107064,50.5141075 59.5814002,50.5078879 59.5507934,50.2794579 C59.1132299,46.9813598 57.4791682,40.1448598 51.4581354,40.1448598 C47.3811996,40.1448598 44.7529845,47.7282804 43.8614205,50.7742009 C43.8053081,50.9653131 43.5230456,50.9240374 43.5230456,50.7250093 L43.5230456,9.32943925 C43.5230456,4.17676168 39.3361522,0 34.1709755,0 C29.0057989,0 24.8189055,4.17676168 24.8189055,9.32943925 L24.8189055,62.1261495 L24.8189055,69.2640187 L24.8189055,73.1902991 C18.4141544,67.1499112 8.32922213,66.9282664 1.65977918,72.9109813 C-0.39710945,74.7559486 -0.565446711,77.9155187 1.28456279,79.9679953 L29.1979414,110.934949 C30.2469744,112.412918 31.4604278,113.766528 32.8117746,114.969042" id="Stroke-1" stroke-width="5.6" fill="#FFFFFF"></path>
                <path d="M81,144 L81,184 C81,185.104569 80.1045695,186 79,186 L29,186 C27.8954305,186 27,185.104569 27,184 L27,144" id="Rectangle-Copy" stroke-width="5" fill="#FFFFFF" fill-rule="nonzero"></path>
                <rect id="Rectangle" stroke-width="5" fill="#FFF100" fill-rule="nonzero" x="22" y="115" width="64" height="29" rx="5"></rect>
            </g>
            <g id="hand-copy-4" transform="translate(989.752455, 308.280894) rotate(-19.000000) translate(-989.752455, -308.280894) translate(960.252455, 247.280894)" stroke="#14EEC4">
                <path d="M48.376986,76 C54.7690124,71.8596435 59,64.6537951 59,56.4574361 L59,45.8134456 L59,40.9251882 L59,39.1090389 C59,35.8179202 56.3381175,33.1495663 53.0549804,33.1495663 C52.6213655,33.1495663 52.058818,33.2780674 51.5397435,33.4326413 C50.8122217,33.6490446 50.0824705,33.1052427 50.0824705,32.3442926 C50.0824705,29.7582539 47.9794198,27.4385292 45.4100567,27.2031301 C40.6232012,26.7643639 39.7407373,30.5784264 39.3004343,33.1264734 C39.2747964,33.2758326 39.0589179,33.2717355 39.0388534,33.1212588 C38.7520062,30.9486586 37.680788,26.4451596 33.7336665,26.4451596 C31.0610087,26.4451596 29.3380676,31.4406875 28.7535979,33.4471675 C28.7168131,33.5730613 28.5317744,33.5458712 28.5317744,33.4147628 L28.5317744,6.14570611 C28.5317744,2.751414 25.7870331,0 22.4009729,0 C19.0149126,0 16.2701714,2.751414 16.2701714,6.14570611 L16.2701714,40.9251882 L16.2701714,45.6272121 L16.2701714,48.2136232 C12.0715012,44.2345578 5.46026784,44.0885507 1.08807746,48.0296244 C-0.260327306,49.2449844 -0.370681733,51.3263302 0.842102273,52.6783855 L19.1408727,73.0776602 C19.8285721,74.0512626 20.6240582,74.9429446 21.5099411,75.7350927" id="Stroke-1" stroke-width="5.6" fill="#FFFFFF"></path>
                <path d="M53,94 L53,120 C53,121.104569 52.1045695,122 51,122 L20,122 C18.8954305,122 18,121.104569 18,120 L18,94" id="Rectangle-Copy" stroke-width="5" fill="#FFFFFF" fill-rule="nonzero"></path>
                <rect id="Rectangle" stroke-width="5" fill="#FFF100" fill-rule="nonzero" x="16" y="75" width="38" height="19" rx="5"></rect>
            </g>
        </g>
        <g id="enercoop-logo" transform="translate(510.000000, 188.000000)" fill-rule="nonzero">
            <g id="Group">
                <path d="M142.113462,33.6965517 L133.444231,24.1677743 C132.721795,23.4427586 131.586538,23.0284639 130.657692,23.0284639 L125.497436,23.0284639 L124.98141,23.0284639 C123.949359,23.0284639 123.020513,23.4427586 122.401282,24.1677743 L114.660897,33.5929781 C113.628846,34.8358621 113.732051,36.7001881 114.764103,38.1502194 L117.344231,41.6717241 L122.298077,35.1465831 L122.298077,48.1968652 L127.148718,54.3077116 C127.974359,55.3434483 129.212821,55.9648903 130.348077,55.9648903 C130.657692,55.9648903 130.967308,55.9648903 131.173718,55.8613166 C132.61859,55.5505956 133.650641,54.3077116 133.753846,52.7541066 L133.857051,52.0290909 L133.857051,34.8358621 L139.739744,41.9824451 L142.216667,38.2537931 C143.455128,36.9073354 143.248718,34.9394357 142.113462,33.6965517 Z" id="Shape" fill="#F4A41D"></path>
                <g fill="#E00F21" id="Shape">
                    <path d="M0,10.4960502 L0,10.4960502 C0,4.69592476 4.12820513,0.345830721 9.90769231,0.345830721 C16.7192308,0.345830721 19.9185897,5.11021944 19.9185897,10.9103448 C19.9185897,11.3246395 19.9185897,12.2568025 19.9185897,12.2568025 L7.53397436,12.2568025 C8.05,14.0175549 9.39166667,14.8461442 11.1461538,14.8461442 C12.5910256,14.8461442 13.8294872,14.2247022 15.0679487,12.8782445 L19.4025641,16.2961755 C17.5448718,18.7819436 14.7583333,20.4391223 10.6301282,20.4391223 C4.33461538,20.4391223 0,16.5033229 0,10.4960502 Z M12.6942308,8.63172414 C12.4878205,6.87097179 11.4557692,5.73166144 10.0108974,5.73166144 C8.66923077,5.73166144 7.74038462,6.76739812 7.43076923,8.63172414 L12.6942308,8.63172414 Z"></path>
                    <path d="M21.4666667,0.552978056 L29.5166667,0.552978056 L29.5166667,3.45304075 C30.4455128,1.89943574 32.7160256,0.345830721 35.399359,0.345830721 C39.424359,0.345830721 42.0044872,3.03874608 42.0044872,7.28526646 L42.0044872,20.2319749 L33.9544872,20.2319749 L33.9544872,9.87460815 C33.9544872,8.21742947 32.9224359,7.28526646 31.7871795,7.28526646 C30.5487179,7.28526646 29.5166667,8.21742947 29.5166667,9.87460815 L29.5166667,20.2319749 L21.4666667,20.2319749 L21.4666667,0.552978056 Z"></path>
                    <path d="M42.9333333,10.4960502 L42.9333333,10.4960502 C42.9333333,4.69592476 47.1647436,0.345830721 52.9442308,0.345830721 C59.7557692,0.345830721 62.9551282,5.11021944 62.9551282,10.9103448 C62.9551282,11.3246395 62.9551282,12.2568025 62.9551282,12.2568025 L50.5705128,12.2568025 C51.0865385,14.0175549 52.4282051,14.8461442 54.1826923,14.8461442 C55.6275641,14.8461442 56.8660256,14.2247022 58.1044872,12.8782445 L62.4391026,16.2961755 C60.5814103,18.7819436 57.6916667,20.4391223 53.5634615,20.4391223 C47.2679487,20.4391223 42.9333333,16.5033229 42.9333333,10.4960502 Z M55.7307692,8.63172414 C55.524359,6.87097179 54.4923077,5.73166144 53.0474359,5.73166144 C51.7057692,5.73166144 50.7769231,6.76739812 50.4673077,8.63172414 L55.7307692,8.63172414 Z"></path>
                    <path d="M64.4,0.552978056 L72.45,0.552978056 L72.45,4.69592476 C73.3788462,2.10658307 75.1333333,0.449404389 78.7455128,0.552978056 L78.7455128,8.63172414 L77.6102564,8.63172414 C74.2044872,8.63172414 72.45,10.8067712 72.45,15.0532915 L72.45,20.2319749 L64.4,20.2319749 L64.4,0.552978056 L64.4,0.552978056 Z"></path>
                    <path d="M78.6423077,10.4960502 L78.6423077,10.4960502 C78.6423077,5.11021944 82.9769231,0.345830721 89.1692308,0.345830721 C93.400641,0.345830721 96.3935897,2.52087774 97.9416667,5.62808777 L92.2653846,8.83887147 C91.6461538,7.59598746 90.8205128,6.87097179 89.5820513,6.87097179 C87.9307692,6.87097179 86.7955128,8.32100313 86.7955128,10.2889028 L86.7955128,10.3924765 C86.7955128,12.3603762 87.9307692,13.8104075 89.5820513,13.8104075 C91.0269231,13.8104075 91.749359,13.0853918 92.4717949,11.8425078 L98.2512821,15.1568652 C96.4967949,18.3676489 93.5038462,20.3355486 88.9628205,20.3355486 C82.9769231,20.4391223 78.6423077,15.8818809 78.6423077,10.4960502 Z"></path>
                    <path d="M97.425641,10.4960502 L97.425641,10.4960502 C97.425641,5.00664577 101.863462,0.449404389 108.158974,0.449404389 C114.454487,0.449404389 118.892308,5.00664577 118.892308,10.3924765 L118.892308,10.4960502 C118.892308,15.8818809 114.454487,20.5426959 108.158974,20.5426959 C101.863462,20.4391223 97.425641,15.8818809 97.425641,10.4960502 Z M111.771154,10.4960502 L111.771154,10.4960502 C111.771154,8.52815047 110.326282,6.97454545 108.571795,6.97454545 C106.817308,6.97454545 105.475641,8.52815047 105.475641,10.2889028 L105.475641,10.3924765 C105.475641,12.2568025 106.920513,13.8104075 108.675,13.8104075 C110.429487,13.8104075 111.771154,12.2568025 111.771154,10.4960502 Z"></path>
                </g>
                <ellipse id="Oval" fill="#F4A41D" cx="127.767949" cy="10.5996238" rx="10.3205128" ry="10.2537931"></ellipse>
                <path d="M139.430128,0.552978056 L146.551282,0.552978056 L146.551282,3.14231975 C148.305769,1.6922884 149.544231,0.345830721 152.433974,0.345830721 C157.078205,0.345830721 160.896795,4.38520376 160.896795,10.1853292 L160.896795,10.2889028 C160.896795,16.3997492 157.078205,20.4391223 152.537179,20.4391223 C149.647436,20.4391223 148.408974,19.1962382 146.551282,17.8497806 L146.551282,25.7213793 L139.430128,25.7213793 L139.430128,0.552978056 L139.430128,0.552978056 Z M152.846795,10.3924765 L152.846795,10.3924765 C152.846795,8.4245768 151.505128,6.87097179 149.750641,6.87097179 C147.892949,6.87097179 146.654487,8.4245768 146.654487,10.2889028 L146.654487,10.3924765 C146.654487,12.2568025 147.996154,13.8104075 149.750641,13.8104075 C151.608333,13.9139812 152.846795,12.3603762 152.846795,10.3924765 Z" id="Shape" fill="#E00F21"></path>
            </g>
            <g id="Group" transform="translate(0.961194, 27.517241)" fill="#F4AE38" stroke="#F4AE38" stroke-width="0.5">
                <polygon id="Shape" points="0.412338308 1.25131034 2.78328358 1.25131034 2.78328358 9.9062069 8.14368159 9.9062069 8.14368159 12.096 0.412338308 12.096"></polygon>
                <path d="M9.07144279,5.2137931 C10.1022886,5.10951724 10.6177114,4.58813793 10.5146269,3.64965517 L9.58686567,3.64965517 L9.58686567,1.14703448 L12.0608955,1.14703448 L12.0608955,3.23255172 C12.0608955,4.27531034 11.8547264,5.00524138 11.3393035,5.42234483 C10.8238806,5.83944828 10.2053731,6.048 9.27761194,6.15227586 L9.07144279,5.2137931 Z" id="Shape"></path>
                <path d="M17.8336318,12.2002759 C17.2151244,12.2002759 16.6997015,12.096 16.1842786,11.8874483 C15.6688557,11.6788966 15.2565174,11.366069 14.8441791,11.0532414 C14.4318408,10.6361379 14.1225871,10.2190345 13.9164179,9.69765517 C13.7102488,9.17627586 13.6071642,8.55062069 13.6071642,7.92496552 L13.6071642,7.92496552 C13.6071642,7.29931034 13.7102488,6.77793103 13.9164179,6.25655172 C14.1225871,5.73517241 14.4318408,5.31806897 14.7410945,4.90096552 C15.0503483,4.48386207 15.5657711,4.17103448 15.9781095,3.96248276 C16.4935323,3.75393103 17.0089552,3.64965517 17.6274627,3.64965517 C18.3490547,3.64965517 18.8644776,3.75393103 19.3799005,4.06675862 C19.8953234,4.27531034 20.3076617,4.69241379 20.6169154,5.10951724 C20.9261692,5.52662069 21.2354229,6.048 21.3385075,6.56937931 C21.5446766,7.09075862 21.5446766,7.71641379 21.5446766,8.2377931 C21.5446766,8.34206897 21.5446766,8.44634483 21.5446766,8.55062069 C21.5446766,8.65489655 21.5446766,8.75917241 21.5446766,8.86344828 L15.8750249,8.86344828 C15.9781095,9.38482759 16.1842786,9.80193103 16.5966169,10.1147586 C16.9058706,10.4275862 17.4212935,10.5318621 17.9367164,10.5318621 C18.3490547,10.5318621 18.6583085,10.4275862 18.9675622,10.3233103 C19.2768159,10.2190345 19.5860697,10.0104828 19.8953234,9.69765517 L21.2354229,10.8446897 C20.8230846,11.366069 20.4107463,11.6788966 19.7922388,11.9917241 C19.1737313,12.096 18.5552239,12.2002759 17.8336318,12.2002759 Z M19.2768159,7.29931034 C19.1737313,6.77793103 19.0706468,6.36082759 18.761393,6.048 C18.4521393,5.73517241 18.039801,5.52662069 17.6274627,5.52662069 C17.1120398,5.52662069 16.6997015,5.73517241 16.4935323,6.048 C16.1842786,6.36082759 15.9781095,6.77793103 15.8750249,7.29931034 L19.2768159,7.29931034 Z M18.3490547,0.104275862 L20.3076617,0.938482759 L18.3490547,2.81544828 L16.5966169,2.81544828 L18.3490547,0.104275862 Z" id="Shape"></path>
                <path d="M23.2971144,3.75393103 L25.5649751,3.75393103 L25.5649751,4.90096552 C25.6680597,4.69241379 25.8742289,4.58813793 25.9773134,4.37958621 C26.1834826,4.17103448 26.2865672,4.06675862 26.4927363,3.96248276 C26.6989055,3.8582069 26.9050746,3.75393103 27.1112438,3.64965517 C27.3174129,3.54537931 27.6266667,3.54537931 27.9359204,3.54537931 C28.8636816,3.54537931 29.4821891,3.8582069 29.9976119,4.37958621 C30.5130348,4.90096552 30.719204,5.63089655 30.719204,6.67365517 L30.719204,11.9917241 L28.4513433,11.9917241 L28.4513433,7.40358621 C28.4513433,6.8822069 28.3482587,6.46510345 28.039005,6.15227586 C27.8328358,5.83944828 27.4204975,5.73517241 27.0081592,5.73517241 C26.5958209,5.73517241 26.1834826,5.83944828 25.9773134,6.15227586 C25.6680597,6.46510345 25.5649751,6.8822069 25.5649751,7.40358621 L25.5649751,11.9917241 L23.2971144,11.9917241 L23.2971144,3.75393103 L23.2971144,3.75393103 Z" id="Shape"></path>
                <path d="M36.6981095,12.2002759 C36.079602,12.2002759 35.5641791,12.096 35.0487562,11.8874483 C34.5333333,11.6788966 34.120995,11.366069 33.7086567,11.0532414 C33.2963184,10.6361379 32.9870647,10.2190345 32.7808955,9.69765517 C32.5747264,9.17627586 32.4716418,8.55062069 32.4716418,7.92496552 L32.4716418,7.92496552 C32.4716418,7.29931034 32.5747264,6.77793103 32.7808955,6.25655172 C32.9870647,5.73517241 33.2963184,5.31806897 33.6055721,4.90096552 C33.9148259,4.48386207 34.4302488,4.17103448 34.8425871,3.96248276 C35.35801,3.75393103 35.8734328,3.64965517 36.4919403,3.64965517 C37.2135323,3.64965517 37.7289552,3.75393103 38.2443781,4.06675862 C38.759801,4.27531034 39.1721393,4.69241379 39.481393,5.10951724 C39.7906468,5.52662069 40.0999005,6.048 40.2029851,6.56937931 C40.4091542,7.09075862 40.4091542,7.71641379 40.4091542,8.2377931 C40.4091542,8.34206897 40.4091542,8.44634483 40.4091542,8.55062069 C40.4091542,8.65489655 40.4091542,8.75917241 40.4091542,8.86344828 L34.7395025,8.86344828 C34.8425871,9.38482759 35.0487562,9.80193103 35.4610945,10.1147586 C35.7703483,10.4275862 36.2857711,10.5318621 36.801194,10.5318621 C37.2135323,10.5318621 37.5227861,10.4275862 37.8320398,10.3233103 C38.1412935,10.2190345 38.4505473,10.0104828 38.759801,9.69765517 L40.0999005,10.8446897 C39.6875622,11.366069 39.2752239,11.6788966 38.6567164,11.9917241 C38.038209,12.096 37.4197015,12.2002759 36.6981095,12.2002759 Z M38.1412935,7.29931034 C38.038209,6.77793103 37.9351244,6.36082759 37.6258706,6.048 C37.3166169,5.73517241 36.9042786,5.52662069 36.4919403,5.52662069 C35.9765174,5.52662069 35.5641791,5.73517241 35.35801,6.048 C35.0487562,6.36082759 34.8425871,6.77793103 34.7395025,7.29931034 L38.1412935,7.29931034 Z" id="Shape"></path>
                <path d="M42.161592,3.75393103 L44.4294527,3.75393103 L44.4294527,5.42234483 C44.6356219,4.90096552 44.9448756,4.37958621 45.3572139,4.06675862 C45.7695522,3.75393103 46.2849751,3.54537931 47.0065672,3.64965517 L47.0065672,6.048 L46.9034826,6.048 C46.1818905,6.048 45.5633831,6.25655172 45.0479602,6.77793103 C44.6356219,7.29931034 44.4294527,8.02924138 44.4294527,8.96772414 L44.4294527,11.9917241 L42.161592,11.9917241 L42.161592,3.75393103 Z" id="Shape"></path>
                <path d="M52.160796,14.4943448 C51.439204,14.4943448 50.8206965,14.390069 50.2021891,14.2857931 C49.5836816,14.1815172 49.0682587,13.9729655 48.5528358,13.6601379 L49.3775124,11.8874483 C49.7898507,12.096 50.2021891,12.3045517 50.6145274,12.4088276 C51.0268657,12.5131034 51.5422886,12.6173793 52.0577114,12.6173793 C52.8823881,12.6173793 53.3978109,12.4088276 53.8101493,12.096 C54.2224876,11.6788966 54.4286567,11.1575172 54.4286567,10.4275862 L54.4286567,10.0104828 C54.119403,10.4275862 53.7070647,10.7404138 53.2947264,10.9489655 C52.8823881,11.1575172 52.3669652,11.2617931 51.7484577,11.2617931 C51.2330348,11.2617931 50.8206965,11.1575172 50.4083582,11.0532414 C49.9960199,10.8446897 49.5836816,10.6361379 49.2744279,10.3233103 C48.9651741,10.0104828 48.6559204,9.59337931 48.4497512,9.072 C48.2435821,8.55062069 48.1404975,8.02924138 48.1404975,7.40358621 L48.1404975,7.40358621 C48.1404975,6.77793103 48.2435821,6.25655172 48.4497512,5.73517241 C48.6559204,5.2137931 48.9651741,4.90096552 49.2744279,4.48386207 C49.5836816,4.17103448 49.9960199,3.8582069 50.4083582,3.75393103 C50.8206965,3.54537931 51.3361194,3.54537931 51.7484577,3.54537931 C52.3669652,3.54537931 52.8823881,3.64965517 53.2947264,3.8582069 C53.7070647,4.06675862 54.0163184,4.37958621 54.3255721,4.69241379 L54.3255721,3.64965517 L56.6965174,3.64965517 L56.6965174,10.0104828 C56.6965174,11.4703448 56.3872637,12.5131034 55.6656716,13.2430345 C55.2533333,13.6601379 54.840995,13.8686897 54.2224876,14.0772414 C53.6039801,14.4943448 52.9854726,14.4943448 52.160796,14.4943448 Z M52.4700498,9.38482759 C52.7793035,9.38482759 52.9854726,9.38482759 53.2947264,9.28055172 C53.5008955,9.17627586 53.7070647,9.072 53.9132338,8.86344828 C54.119403,8.65489655 54.2224876,8.44634483 54.3255721,8.2377931 C54.4286567,8.02924138 54.4286567,7.71641379 54.4286567,7.50786207 L54.4286567,7.50786207 C54.4286567,7.19503448 54.4286567,6.98648276 54.3255721,6.77793103 C54.2224876,6.56937931 54.119403,6.36082759 53.9132338,6.15227586 C53.7070647,5.94372414 53.5008955,5.83944828 53.2947264,5.73517241 C53.0885572,5.63089655 52.7793035,5.63089655 52.4700498,5.63089655 C52.160796,5.63089655 51.9546269,5.63089655 51.6453731,5.73517241 C51.439204,5.83944828 51.2330348,5.94372414 51.0268657,6.15227586 C50.8206965,6.36082759 50.7176119,6.56937931 50.6145274,6.77793103 C50.5114428,6.98648276 50.5114428,7.29931034 50.5114428,7.50786207 L50.5114428,7.50786207 C50.5114428,8.13351724 50.7176119,8.55062069 51.0268657,8.86344828 C51.439204,9.28055172 51.8515423,9.38482759 52.4700498,9.38482759 Z" id="Shape"></path>
                <path d="M58.8612935,0.834206897 L61.3353234,0.834206897 L61.3353234,2.91972414 L58.8612935,2.91972414 L58.8612935,0.834206897 Z M58.8612935,3.75393103 L61.1291542,3.75393103 L61.1291542,11.9917241 L58.8612935,11.9917241 L58.8612935,3.75393103 Z" id="Shape"></path>
                <path d="M67.2111443,12.2002759 C66.5926368,12.2002759 66.0772139,12.096 65.561791,11.8874483 C65.0463682,11.6788966 64.6340299,11.366069 64.2216915,11.0532414 C63.8093532,10.6361379 63.5000995,10.2190345 63.2939303,9.69765517 C63.0877612,9.17627586 62.9846766,8.55062069 62.9846766,7.92496552 L62.9846766,7.92496552 C62.9846766,7.29931034 63.0877612,6.77793103 63.2939303,6.25655172 C63.5000995,5.73517241 63.8093532,5.31806897 64.118607,4.90096552 C64.4278607,4.48386207 64.9432836,4.17103448 65.3556219,3.96248276 C65.8710448,3.75393103 66.3864677,3.64965517 67.0049751,3.64965517 C67.7265672,3.64965517 68.24199,3.75393103 68.7574129,4.06675862 C69.2728358,4.27531034 69.6851741,4.69241379 69.9944279,5.10951724 C70.3036816,5.52662069 70.6129353,6.048 70.7160199,6.56937931 C70.9221891,7.09075862 70.9221891,7.71641379 70.9221891,8.2377931 C70.9221891,8.34206897 70.9221891,8.44634483 70.9221891,8.55062069 C70.9221891,8.65489655 70.9221891,8.75917241 70.9221891,8.86344828 L65.2525373,8.86344828 C65.3556219,9.38482759 65.561791,9.80193103 65.9741294,10.1147586 C66.2833831,10.4275862 66.798806,10.5318621 67.3142289,10.5318621 C67.7265672,10.5318621 68.0358209,10.4275862 68.3450746,10.3233103 C68.6543284,10.2190345 68.9635821,10.0104828 69.2728358,9.69765517 L70.6129353,10.8446897 C70.200597,11.366069 69.7882587,11.6788966 69.1697512,11.9917241 C68.6543284,12.096 68.0358209,12.2002759 67.2111443,12.2002759 Z M68.7574129,7.29931034 C68.6543284,6.77793103 68.5512438,6.36082759 68.24199,6.048 C67.9327363,5.73517241 67.520398,5.52662069 67.1080597,5.52662069 C66.5926368,5.52662069 66.1802985,5.73517241 65.9741294,6.048 C65.6648756,6.36082759 65.4587065,6.77793103 65.3556219,7.29931034 L68.7574129,7.29931034 Z" id="Shape"></path>
                <path d="M0.309253731,17.5183448 L2.57711443,17.5183448 L2.57711443,18.6653793 C2.680199,18.4568276 2.88636816,18.3525517 2.98945274,18.144 C3.19562189,17.9354483 3.29870647,17.8311724 3.50487562,17.7268966 C3.71104478,17.6226207 3.91721393,17.5183448 4.12338308,17.414069 C4.32955224,17.3097931 4.63880597,17.3097931 4.9480597,17.3097931 C5.46348259,17.3097931 5.97890547,17.414069 6.39124378,17.6226207 C6.80358209,17.8311724 7.11283582,18.144 7.31900498,18.5611034 C7.62825871,18.144 8.04059701,17.8311724 8.5560199,17.6226207 C8.96835821,17.414069 9.48378109,17.3097931 9.99920398,17.3097931 C10.8238806,17.3097931 11.5454726,17.5183448 12.0608955,18.0397241 C12.5763184,18.5611034 12.7824876,19.2910345 12.7824876,20.3337931 L12.7824876,25.7561379 L10.5146269,25.7561379 L10.5146269,21.168 C10.5146269,20.6466207 10.4115423,20.2295172 10.2053731,19.9166897 C9.99920398,19.6038621 9.58686567,19.4995862 9.17452736,19.4995862 C8.76218905,19.4995862 8.34985075,19.6038621 8.14368159,19.9166897 C7.93751244,20.2295172 7.73134328,20.6466207 7.73134328,21.168 L7.73134328,25.7561379 L5.36039801,25.7561379 L5.36039801,21.168 C5.36039801,20.6466207 5.25731343,20.2295172 5.05114428,19.9166897 C4.84497512,19.6038621 4.43263682,19.4995862 4.02029851,19.4995862 C3.6079602,19.4995862 3.19562189,19.6038621 2.98945274,19.9166897 C2.78328358,20.2295172 2.57711443,20.6466207 2.57711443,21.168 L2.57711443,25.7561379 L0.309253731,25.7561379 L0.309253731,17.5183448 Z" id="Shape"></path>
                <path d="M14.8441791,14.4943448 L17.318209,14.4943448 L17.318209,16.5798621 L14.8441791,16.5798621 L14.8441791,14.4943448 Z M14.8441791,17.5183448 L17.1120398,17.5183448 L17.1120398,25.7561379 L14.8441791,25.7561379 L14.8441791,17.5183448 L14.8441791,17.5183448 Z" id="Shape"></path>
                <polygon id="Shape" points="19.4829851 14.4943448 21.7508458 14.4943448 21.7508458 25.7561379 19.4829851 25.7561379"></polygon>
                <path d="M24.0187065,14.4943448 L26.4927363,14.4943448 L26.4927363,16.5798621 L24.0187065,16.5798621 L24.0187065,14.4943448 Z M24.0187065,17.5183448 L26.2865672,17.5183448 L26.2865672,25.7561379 L24.0187065,25.7561379 L24.0187065,17.5183448 Z" id="Shape"></path>
                <path d="M31.3377114,25.8604138 C31.0284577,25.8604138 30.6161194,25.8604138 30.4099502,25.7561379 C30.1006965,25.6518621 29.8945274,25.5475862 29.6883582,25.3390345 C29.4821891,25.1304828 29.2760199,24.921931 29.1729353,24.6091034 C29.0698507,24.2962759 28.9667662,23.8791724 28.9667662,23.462069 L28.9667662,19.4995862 L28.039005,19.4995862 L28.039005,17.5183448 L28.9667662,17.5183448 L28.9667662,15.4328276 L31.2346269,15.4328276 L31.2346269,17.5183448 L33.1932338,17.5183448 L33.1932338,19.4995862 L31.2346269,19.4995862 L31.2346269,23.0449655 C31.2346269,23.5663448 31.440796,23.8791724 31.9562189,23.8791724 C32.3685572,23.8791724 32.7808955,23.7748966 33.0901493,23.5663448 L33.0901493,25.4433103 C32.8839801,25.5475862 32.5747264,25.6518621 32.2654726,25.7561379 C32.0593035,25.8604138 31.6469652,25.8604138 31.3377114,25.8604138 Z" id="Shape"></path>
                <path d="M37.2135323,25.8604138 C36.801194,25.8604138 36.4919403,25.7561379 36.079602,25.6518621 C35.7703483,25.5475862 35.4610945,25.3390345 35.1518408,25.1304828 C34.9456716,24.921931 34.7395025,24.6091034 34.5333333,24.2962759 C34.4302488,23.9834483 34.3271642,23.6706207 34.3271642,23.2535172 L34.3271642,23.2535172 C34.3271642,22.8364138 34.4302488,22.4193103 34.5333333,22.1064828 C34.7395025,21.7936552 34.9456716,21.4808276 35.2549254,21.2722759 C35.5641791,21.0637241 35.8734328,20.8551724 36.2857711,20.7508966 C36.6981095,20.6466207 37.1104478,20.5423448 37.6258706,20.5423448 C38.038209,20.5423448 38.4505473,20.5423448 38.759801,20.6466207 C39.0690547,20.7508966 39.3783085,20.7508966 39.6875622,20.8551724 L39.6875622,20.8551724 C39.6875622,20.3337931 39.5844776,20.0209655 39.2752239,19.7081379 C38.9659701,19.4995862 38.5536318,19.2910345 37.9351244,19.2910345 C37.5227861,19.2910345 37.1104478,19.2910345 36.801194,19.3953103 C36.4919403,19.4995862 36.079602,19.6038621 35.7703483,19.7081379 L35.0487562,18.0397241 C35.4610945,17.8311724 35.9765174,17.7268966 36.4919403,17.5183448 C37.0073632,17.414069 37.5227861,17.3097931 38.2443781,17.3097931 C38.8628856,17.3097931 39.3783085,17.414069 39.8937313,17.5183448 C40.3060697,17.7268966 40.718408,17.9354483 41.0276617,18.2482759 C41.3369154,18.5611034 41.5430846,18.9782069 41.7492537,19.3953103 C41.8523383,19.8124138 41.9554229,20.3337931 41.9554229,20.8551724 L41.9554229,25.6518621 L39.6875622,25.6518621 L39.6875622,24.7133793 C39.3783085,25.0262069 39.0690547,25.2347586 38.6567164,25.4433103 C38.2443781,25.7561379 37.7289552,25.8604138 37.2135323,25.8604138 Z M37.9351244,24.2962759 C38.4505473,24.2962759 38.9659701,24.192 39.2752239,23.8791724 C39.5844776,23.5663448 39.7906468,23.2535172 39.7906468,22.8364138 L39.7906468,22.4193103 C39.5844776,22.3150345 39.3783085,22.2107586 39.0690547,22.2107586 C38.8628856,22.1064828 38.5536318,22.1064828 38.2443781,22.1064828 C37.7289552,22.1064828 37.3166169,22.2107586 37.1104478,22.4193103 C36.801194,22.6278621 36.6981095,22.9406897 36.6981095,23.2535172 L36.6981095,23.2535172 C36.6981095,23.5663448 36.801194,23.7748966 37.0073632,23.9834483 C37.2135323,24.192 37.5227861,24.2962759 37.9351244,24.2962759 Z" id="Shape"></path>
                <path d="M43.9140299,17.5183448 L46.1818905,17.5183448 L46.1818905,18.6653793 C46.2849751,18.4568276 46.4911443,18.3525517 46.5942289,18.144 C46.800398,17.9354483 46.9034826,17.8311724 47.1096517,17.7268966 C47.3158209,17.6226207 47.52199,17.5183448 47.7281592,17.414069 C47.9343284,17.3097931 48.2435821,17.3097931 48.5528358,17.3097931 C49.480597,17.3097931 50.0991045,17.6226207 50.6145274,18.144 C51.1299502,18.6653793 51.3361194,19.3953103 51.3361194,20.438069 L51.3361194,25.7561379 L49.0682587,25.7561379 L49.0682587,21.168 C49.0682587,20.6466207 48.9651741,20.2295172 48.6559204,19.9166897 C48.4497512,19.6038621 48.0374129,19.4995862 47.6250746,19.4995862 C47.2127363,19.4995862 46.800398,19.6038621 46.5942289,19.9166897 C46.2849751,20.2295172 46.1818905,20.6466207 46.1818905,21.168 L46.1818905,25.7561379 L43.9140299,25.7561379 L43.9140299,17.5183448 Z" id="Shape"></path>
                <path d="M56.1810945,25.8604138 C55.8718408,25.8604138 55.4595025,25.8604138 55.2533333,25.7561379 C54.9440796,25.6518621 54.7379104,25.5475862 54.5317413,25.3390345 C54.3255721,25.1304828 54.119403,24.921931 54.0163184,24.6091034 C53.9132338,24.2962759 53.8101493,23.8791724 53.8101493,23.462069 L53.8101493,19.4995862 L52.8823881,19.4995862 L52.8823881,17.5183448 L53.8101493,17.5183448 L53.8101493,15.4328276 L56.07801,15.4328276 L56.07801,17.5183448 L58.0366169,17.5183448 L58.0366169,19.4995862 L56.07801,19.4995862 L56.07801,23.0449655 C56.07801,23.5663448 56.2841791,23.8791724 56.799602,23.8791724 C57.2119403,23.8791724 57.6242786,23.7748966 57.9335323,23.5663448 L57.9335323,25.4433103 C57.7273632,25.5475862 57.4181095,25.6518621 57.1088557,25.7561379 C56.9026866,25.8604138 56.4903483,25.8604138 56.1810945,25.8604138 Z" id="Shape"></path>
                <path d="M63.6031841,25.9646897 C62.9846766,25.9646897 62.4692537,25.8604138 61.9538308,25.6518621 C61.438408,25.4433103 61.0260697,25.1304828 60.6137313,24.8176552 C60.201393,24.4005517 59.8921393,23.9834483 59.6859701,23.462069 C59.479801,22.9406897 59.3767164,22.3150345 59.3767164,21.6893793 L59.3767164,21.6893793 C59.3767164,21.0637241 59.479801,20.5423448 59.6859701,20.0209655 C59.8921393,19.4995862 60.201393,19.0824828 60.5106468,18.6653793 C60.8199005,18.2482759 61.3353234,17.9354483 61.7476617,17.7268966 C62.2630846,17.5183448 62.7785075,17.414069 63.3970149,17.414069 C64.118607,17.414069 64.6340299,17.5183448 65.1494527,17.8311724 C65.6648756,18.0397241 66.0772139,18.4568276 66.3864677,18.873931 C66.6957214,19.2910345 67.0049751,19.8124138 67.1080597,20.3337931 C67.3142289,20.8551724 67.3142289,21.4808276 67.3142289,22.0022069 C67.3142289,22.1064828 67.3142289,22.2107586 67.3142289,22.3150345 C67.3142289,22.4193103 67.3142289,22.5235862 67.3142289,22.6278621 L61.6445771,22.6278621 C61.7476617,23.1492414 61.9538308,23.5663448 62.3661692,23.8791724 C62.6754229,24.192 63.1908458,24.2962759 63.7062687,24.2962759 C64.118607,24.2962759 64.4278607,24.192 64.7371144,24.0877241 C65.0463682,23.9834483 65.3556219,23.7748966 65.6648756,23.462069 L67.0049751,24.6091034 C66.5926368,25.1304828 66.1802985,25.4433103 65.561791,25.7561379 C64.9432836,25.7561379 64.3247761,25.9646897 63.6031841,25.9646897 Z M65.0463682,20.9594483 C64.9432836,20.438069 64.840199,20.0209655 64.5309453,19.7081379 C64.2216915,19.3953103 63.8093532,19.1867586 63.3970149,19.1867586 C62.881592,19.1867586 62.4692537,19.3953103 62.2630846,19.7081379 C61.9538308,20.0209655 61.7476617,20.438069 61.6445771,20.9594483 L65.0463682,20.9594483 Z" id="Shape"></path>
            </g>
            <path d="M142.266098,33.8052483 L133.539125,24.3079592 C132.811878,23.5853394 131.66906,23.1724138 130.734027,23.1724138 L125.539401,23.1724138 L125.019938,23.1724138 C123.981013,23.1724138 123.04598,23.5853394 122.422625,24.3079592 L114.630685,33.7020169 C113.59176,34.9407938 113.695652,36.798959 114.734578,38.2441987 L117.331891,41.7540664 L122.318732,35.250488 L122.318732,48.2576448 L127.201681,54.3482975 C128.032821,55.3806116 129.279532,56 130.422349,56 C130.734027,56 131.045705,56 131.25349,55.8967686 C132.707985,55.5870744 133.74691,54.3482975 133.850803,52.7998265 L133.954695,52.0772067 L133.954695,34.9407938 L139.87657,42.0637606 L142.36999,38.3474301 C143.616701,37.0054218 143.408915,35.0440252 142.266098,33.8052483 Z" id="Shape" fill="#F4A41D"></path>
            <ellipse id="Oval" fill="#F4A41D" cx="127.598507" cy="10.6206897" rx="10.3328358" ry="10.137931"></ellipse>
        </g>
    </g>
</svg>